{
  "title": "Ariana Grande ft. The Weeknd - Love Me Harder (2014.Pop)",
  "uid": 11434562,
  "size": 84700620,
  "categoryP": "video",
  "categoryS": "music_videos",
  "magnet": "?xt=urn:btih:2feef3f8ec12292e180eb309121a3e7e12d9a665&amp;dn=Ariana+Grande+ft.+The+Weeknd+-+Love+Me+Harder+%282014.Pop%29&amp;tr=udp%3A%2F%2Ftracker.openbittorrent.com%3A80&amp;tr=udp%3A%2F%2Fopen.demonii.com%3A1337&amp;tr=udp%3A%2F%2Ftracker.coppersurfer.tk%3A6969&amp;tr=udp%3A%2F%2Fexodus.desync.com%3A6969",
  "seeders": 36,
  "leechers": 1,
  "uploader": "MeRaDil",
  "files": -1,
  "time": 1415744635,
  "description": "ARIANA GRANDE ft.THE WEEKND - LOVE ME HARDER\n\n\n &lt;a href=&quot;\nhttp://gifyu.com/images/ArianaGrande.png&quot; rel=&quot;nofollow&quot; target=&quot;_NEW&quot;&gt;\nhttp://gifyu.com/images/ArianaGrande.png&lt;/a&gt;\n\n\nMPEG4 MUSIC VID\nGeneral\nName                                     : Ariana Grande ft. The Weeknd - Love Me Harder\nFormat                                   : MPEG-4\nFormat profile                           : Base Media\nCodec ID                                 : isom\nFile size                                : 80.8 MiB\nDuration                                 : 4mn 10s\nOverall bit rate                         : 2 700 Kbps\nMusicVid name                            : Love Me Harder\nAlbum                                    : My Everything\nPerformer                                : Ariana Grande &amp; The Weeknd\nGenre                                    : Pop\nContentType                              : Music Video\nRecorded date                            : 2014\nISRC                                     : The Promo Bay\nCopyright                                : Ariana Grande\nCover                                    : Yes\nRating                                   : ***\nMake                                     : MeRaDil\noday                                     : 03-11-2014  USA\nrati                                     : (Binary)\nartist url                               : http://www.arianagrande.com\nlabel                                    : Republic\nrelease                                  : USA . november 3 . 2014\nPart_ID                                  : Love Me Harder\n\nVideo\nID                                       : 1\nFormat                                   : AVC\nFormat/Info                              : Advanced Video Codec\nFormat profile                           : &lt;a class=&quot;__cf_email__&quot; href=&quot;/cdn-cgi/l/email-protection&quot; data-cfemail=&quot;f2ba9b959ab2bec6dcc2&quot;&gt;[email&amp;#160;protected]&lt;/a&gt;&lt;script cf-hash='f9e31' type=&quot;text/javascript&quot;&gt;\n/* &lt;![CDATA[ */!function(){try{var t=&quot;currentScript&quot;in document?document.currentScript:function(){for(var t=document.getElementsByTagName(&quot;script&quot;),e=t.length;e--;)if(t[e].getAttribute(&quot;cf-hash&quot;))return t[e]}();if(t&amp;&amp;t.previousSibling){var e,r,n,i,c=t.previousSibling,a=c.getAttribute(&quot;data-cfemail&quot;);if(a){for(e=&quot;&quot;,r=parseInt(a.substr(0,2),16),n=2;a.length-n;n+=2)i=parseInt(a.substr(n,2),16)^r,e+=String.fromCharCode(i);e=document.createTextNode(e),c.parentNode.replaceChild(e,c)}}}catch(u){}}();/* ]]&gt; */&lt;/script&gt;\nFormat settings, CABAC                   : Yes\nFormat settings, ReFrames                : 2 frames\nCodec ID                                 : avc1\nCodec ID/Info                            : Advanced Video Coding\nDuration                                 : 4mn 10s\nBit rate                                 : 2 436 Kbps\nWidth                                    : 1 920 pixels\nHeight                                   : 1 080 pixels\nDisplay aspect ratio                     : 16:9\nFrame rate mode                          : Variable\nFrame rate                               : 23.976 fps\nMinimum frame rate                       : 23.974 fps\nMaximum frame rate                       : 23.981 fps\nColor space                              : YUV\nChroma subsampling                       : 4:2:0\nBit depth                                : 8 bits\nScan type                                : Progressive\nBits/(Pixel*Frame)                       : 0.049\nStream size                              : 72.9 MiB (90%)\n\nAudio\nID                                       : 2\nFormat                                   : AAC\nFormat/Info                              : Advanced Audio Codec\nFormat profile                           : LC\nCodec ID                                 : 40\nDuration                                 : 4mn 10s\nBit rate mode                            : Constant\nBit rate                                 : 256 Kbps\nChannel(s)                               : 2 channels\nChannel positions                        : Front: L R\nSampling rate                            : 44.1 KHz\nCompression mode                         : Lossy\nStream size                              : 7.66 MiB (9%)\n\nAriana Grande * My Everything\n &lt;a href=&quot;\nhttps://thepiratebay.se/user/MeRaDil&quot; rel=&quot;nofollow&quot; target=&quot;_NEW&quot;&gt;\nhttps://thepiratebay.se/user/MeRaDil&lt;/a&gt;\n\n:)",
  "parsed": {
    "xt": "urn:btih:2feef3f8ec12292e180eb309121a3e7e12d9a665",
    "dn": "Ariana Grande ft. The Weeknd - Love Me Harder (2014.Pop)",
    "tr": [
      "udp://exodus.desync.com:6969",
      "udp://open.demonii.com:1337",
      "udp://tracker.coppersurfer.tk:6969",
      "udp://tracker.openbittorrent.com:80"
    ],
    "infoHash": "2feef3f8ec12292e180eb309121a3e7e12d9a665",
    "infoHashBuffer": {
      "type": "Buffer",
      "data": [
        47,
        238,
        243,
        248,
        236,
        18,
        41,
        46,
        24,
        14,
        179,
        9,
        18,
        26,
        62,
        126,
        18,
        217,
        166,
        101
      ]
    },
    "name": "Ariana Grande ft. The Weeknd - Love Me Harder (2014.Pop)",
    "announce": [
      "udp://exodus.desync.com:6969",
      "udp://open.demonii.com:1337",
      "udp://tracker.coppersurfer.tk:6969",
      "udp://tracker.openbittorrent.com:80"
    ],
    "urlList": []
  },
  "previous": 8,
  "peers": 36,
  "last_updated": "2016-12-26T20:30:43.352Z"
}